<svg width="24" height="24" viewBox="0 0 24 24" fill="none" xmlns="http://www.w3.org/2000/svg">
<rect width="24" height="24" rx="12" fill="black"/>
<path fill-rule="evenodd" clip-rule="evenodd" d="M1.58731 17.9673C1.37967 17.6057 1.19031 17.2323 1.02051 16.8483L7.25407 4.84729L12.9192 15.7538V4.84737H19.1262C19.135 4.84732 19.1438 4.84729 19.1526 4.84729C20.6735 4.84729 22.0151 5.61536 22.8105 6.78478C23.1028 7.38957 23.3458 8.02262 23.5344 8.67873C23.5601 8.87151 23.5734 9.06822 23.5734 9.26803C23.5734 11.3793 22.0934 13.1448 20.1143 13.5839L22.8766 17.0778C22.7346 17.3814 22.5802 17.6782 22.4141 17.9674H12.9192V17.9673H1.58731Z" fill="white"/>
</svg>
