<svg width="196" height="42" viewBox="0 0 196 42" fill="none" xmlns="http://www.w3.org/2000/svg">
<path d="M65.6725 25.582H59.5565L58.5445 28.508H55.3105L60.8325 13.13H64.4185L69.9405 28.508H66.6845L65.6725 25.582ZM64.8365 23.118L62.6145 16.694L60.3925 23.118H64.8365Z" fill="white"/>
<path d="M75.0846 12.228V28.508H72.0046V12.228H75.0846Z" fill="white"/>
<path d="M89.4576 22.15C89.4576 22.59 89.4283 22.986 89.3696 23.338H80.4596C80.533 24.218 80.841 24.9074 81.3836 25.406C81.9263 25.9047 82.5936 26.154 83.3856 26.154C84.5296 26.154 85.3436 25.6627 85.8276 24.68H89.1496C88.7976 25.8534 88.123 26.8214 87.1256 27.584C86.1283 28.332 84.9036 28.706 83.4516 28.706C82.2783 28.706 81.2223 28.4494 80.2836 27.936C79.3596 27.408 78.6336 26.6674 78.1056 25.714C77.5923 24.7607 77.3356 23.6607 77.3356 22.414C77.3356 21.1527 77.5923 20.0454 78.1056 19.092C78.619 18.1387 79.3376 17.4054 80.2616 16.892C81.1856 16.3787 82.249 16.122 83.4516 16.122C84.6103 16.122 85.6443 16.3714 86.5536 16.87C87.4776 17.3687 88.189 18.08 88.6876 19.004C89.201 19.9134 89.4576 20.962 89.4576 22.15ZM86.2676 21.27C86.253 20.478 85.967 19.8474 85.4096 19.378C84.8523 18.894 84.1703 18.652 83.3636 18.652C82.601 18.652 81.9556 18.8867 81.4276 19.356C80.9143 19.8107 80.599 20.4487 80.4816 21.27H86.2676Z" fill="white"/>
<path d="M98.4378 28.508L95.9298 24.724L93.7078 28.508H90.4078L94.3898 22.392L90.3638 16.32H93.8398L96.3258 20.082L98.5698 16.32H101.87L97.8658 22.392L101.914 28.508H98.4378Z" fill="white"/>
<path d="M111.507 28.508L108.119 22.524H106.667V28.508H103.587V13.152H109.351C110.539 13.152 111.551 13.3647 112.387 13.79C113.223 14.2007 113.846 14.7654 114.257 15.484C114.682 16.188 114.895 16.98 114.895 17.86C114.895 18.872 114.601 19.7887 114.015 20.61C113.428 21.4167 112.555 21.974 111.397 22.282L115.071 28.508H111.507ZM106.667 20.214H109.241C110.077 20.214 110.7 20.016 111.111 19.62C111.521 19.2094 111.727 18.6447 111.727 17.926C111.727 17.222 111.521 16.6794 111.111 16.298C110.7 15.902 110.077 15.704 109.241 15.704H106.667V20.214Z" fill="white"/>
<path d="M123.092 28.706C121.919 28.706 120.863 28.4494 119.924 27.936C118.986 27.408 118.245 26.6674 117.702 25.714C117.174 24.7607 116.91 23.6607 116.91 22.414C116.91 21.1674 117.182 20.0674 117.724 19.114C118.282 18.1607 119.037 17.4274 119.99 16.914C120.944 16.386 122.007 16.122 123.18 16.122C124.354 16.122 125.417 16.386 126.37 16.914C127.324 17.4274 128.072 18.1607 128.614 19.114C129.172 20.0674 129.45 21.1674 129.45 22.414C129.45 23.6607 129.164 24.7607 128.592 25.714C128.035 26.6674 127.272 27.408 126.304 27.936C125.351 28.4494 124.28 28.706 123.092 28.706ZM123.092 26.022C123.65 26.022 124.17 25.89 124.654 25.626C125.153 25.3474 125.549 24.9367 125.842 24.394C126.136 23.8514 126.282 23.1914 126.282 22.414C126.282 21.2554 125.974 20.368 125.358 19.752C124.757 19.1214 124.016 18.806 123.136 18.806C122.256 18.806 121.516 19.1214 120.914 19.752C120.328 20.368 120.034 21.2554 120.034 22.414C120.034 23.5727 120.32 24.4674 120.892 25.098C121.479 25.714 122.212 26.022 123.092 26.022Z" fill="white"/>
<path d="M134.526 25.978H139.96V28.508H131.028V26.022L136.352 18.85H131.05V16.32H139.894V18.806L134.526 25.978Z" fill="white"/>
<path d="M149.208 16.144C150.132 16.144 150.954 16.3494 151.672 16.76C152.391 17.156 152.948 17.75 153.344 18.542C153.755 19.3194 153.96 20.258 153.96 21.358V28.508H150.88V21.776C150.88 20.808 150.638 20.0674 150.154 19.554C149.67 19.026 149.01 18.762 148.174 18.762C147.324 18.762 146.649 19.026 146.15 19.554C145.666 20.0674 145.424 20.808 145.424 21.776V28.508H142.344V12.228H145.424V17.838C145.82 17.31 146.348 16.8994 147.008 16.606C147.668 16.298 148.402 16.144 149.208 16.144Z" fill="white"/>
<path d="M164.105 28.508L159.969 23.316V28.508H156.889V12.228H159.969V21.49L164.061 16.32H168.065L162.697 22.436L168.109 28.508H164.105Z" fill="white"/>
<path d="M175.149 28.706C173.976 28.706 172.92 28.4494 171.981 27.936C171.042 27.408 170.302 26.6674 169.759 25.714C169.231 24.7607 168.967 23.6607 168.967 22.414C168.967 21.1674 169.238 20.0674 169.781 19.114C170.338 18.1607 171.094 17.4274 172.047 16.914C173 16.386 174.064 16.122 175.237 16.122C176.41 16.122 177.474 16.386 178.427 16.914C179.38 17.4274 180.128 18.1607 180.671 19.114C181.228 20.0674 181.507 21.1674 181.507 22.414C181.507 23.6607 181.221 24.7607 180.649 25.714C180.092 26.6674 179.329 27.408 178.361 27.936C177.408 28.4494 176.337 28.706 175.149 28.706ZM175.149 26.022C175.706 26.022 176.227 25.89 176.711 25.626C177.21 25.3474 177.606 24.9367 177.899 24.394C178.192 23.8514 178.339 23.1914 178.339 22.414C178.339 21.2554 178.031 20.368 177.415 19.752C176.814 19.1214 176.073 18.806 175.193 18.806C174.313 18.806 173.572 19.1214 172.971 19.752C172.384 20.368 172.091 21.2554 172.091 22.414C172.091 23.5727 172.377 24.4674 172.949 25.098C173.536 25.714 174.269 26.022 175.149 26.022Z" fill="white"/>
<path d="M188.848 25.67L191.928 16.32H195.206L190.696 28.508H186.956L182.468 16.32H185.768L188.848 25.67Z" fill="white"/>
<g clip-path="url(#clip0_16250_4)">
<path fill-rule="evenodd" clip-rule="evenodd" d="M21 0C9.40203 0 0 9.40203 0 21C0 24.0806 0.663376 27.0065 1.85507 29.6423C1.83137 29.5898 1.80788 29.5373 1.7846 29.4846L12.6933 8.48296L22.6074 27.5696V8.48296H33.4963V8.48298C33.5031 8.48296 33.5102 8.48296 33.517 8.48296C36.1791 8.48296 38.527 9.82742 39.9189 11.8744C36.5232 4.84732 29.3276 0 21 0ZM41.1851 15.187C41.2301 15.5247 41.2533 15.8693 41.2533 16.2193C41.2533 19.9142 38.663 23.0042 35.1991 23.7722L40.0327 29.886C41.295 27.1874 42 24.176 42 21C42 18.9833 41.7156 17.033 41.1851 15.187ZM39.2807 31.3428C39.2616 31.3762 39.2425 31.4096 39.2234 31.443H24.6193H22.6074H2.77656C2.77654 31.443 2.77654 31.443 2.77654 31.443C6.39935 37.7513 13.2035 42 21 42C28.8377 42 35.6726 37.7063 39.2807 31.3428Z" fill="white"/>
</g>
<defs>
<clipPath id="clip0_16250_4">
<rect width="42" height="42" fill="white"/>
</clipPath>
</defs>
</svg>
